<?xml version="1.0" encoding="UTF-8" standalone="no"?>
<!-- Created with Inkscape (http://www.inkscape.org/) -->

<svg
   width="1040mm"
   height="360mm"
   viewBox="0 0 1040 360"
   version="1.1"
   id="svg10044"
   inkscape:version="1.1 (c68e22c387, 2021-05-23)"
   sodipodi:docname="logo_team2.svg"
   xmlns:inkscape="http://www.inkscape.org/namespaces/inkscape"
   xmlns:sodipodi="http://sodipodi.sourceforge.net/DTD/sodipodi-0.dtd"
   xmlns="http://www.w3.org/2000/svg"
   xmlns:svg="http://www.w3.org/2000/svg">
  <sodipodi:namedview
     id="namedview10046"
     pagecolor="#ffffff"
     bordercolor="#666666"
     borderopacity="1.0"
     inkscape:pageshadow="2"
     inkscape:pageopacity="0.0"
     inkscape:pagecheckerboard="0"
     inkscape:document-units="mm"
     showgrid="false"
     inkscape:zoom="0.21291572"
     inkscape:cx="2050.1069"
     inkscape:cy="826.61814"
     inkscape:window-width="1920"
     inkscape:window-height="1001"
     inkscape:window-x="-9"
     inkscape:window-y="-9"
     inkscape:window-maximized="1"
     inkscape:current-layer="layer1" />
  <defs
     id="defs10041" />
  <g
     inkscape:label="Layer 1"
     inkscape:groupmode="layer"
     id="layer1"
     transform="translate(-108.63098,-92.154827)">
    <g
       id="g10134"
       transform="matrix(11.055353,0,0,11.055353,-1014.6562,-850.22049)">
      <path
         id="text3078-37"
         style="font-style:normal;font-weight:normal;font-size:10.5833px;line-height:1.25;font-family:sans-serif;letter-spacing:0px;word-spacing:0px;fill:#000000;fill-opacity:1;stroke:none;stroke-width:0.264583"
         d="m 114.26462,92.154827 c -0.93018,0 -1.64332,0.206705 -2.13941,0.620117 -0.49609,0.413411 -0.74414,1.004247 -0.74414,1.772502 0,0.613225 0.17742,1.100709 0.53227,1.462442 0.35829,0.361736 0.92328,0.625287 1.69498,0.790649 l 0.76998,0.170534 c 0.46853,0.103352 0.78032,0.220486 0.93535,0.351399 0.15847,0.130913 0.23771,0.31695 0.23771,0.558107 0,0.268716 -0.11541,0.475421 -0.34623,0.620114 -0.21722,0.136171 -0.52778,0.20592 -0.92501,0.213942 l 1.32395,1.323947 c 0.45177,-0.101741 0.82196,-0.26669 1.10484,-0.49919 0.50643,-0.416857 0.75964,-1.050759 0.75964,-1.901693 0,-0.647676 -0.18086,-1.14722 -0.5426,-1.498618 -0.36173,-0.351399 -0.97152,-0.613228 -1.82934,-0.785482 l -0.8475,-0.170532 c -0.40307,-0.08268 -0.68213,-0.180867 -0.83716,-0.294555 -0.15158,-0.117134 -0.22737,-0.279054 -0.22737,-0.48576 0,-0.275605 0.11369,-0.478866 0.34106,-0.609779 0.22738,-0.130914 0.57878,-0.196372 1.0542,-0.196372 0.35829,0 0.73898,0.04823 1.14205,0.144693 0.40307,0.09646 0.81649,0.239435 1.24023,0.428916 v -1.632976 c -0.47886,-0.127469 -0.94223,-0.222208 -1.39009,-0.284221 -0.44786,-0.06546 -0.88367,-0.09818 -1.30741,-0.09818 z m 4.03076,0.139525 v 1.503786 h 2.56315 v 6.211502 h 1.98954 v -6.211502 h 2.55798 v -1.503786 z m 8.13903,0 v 4.625041 c 0,1.092092 0.27389,1.90514 0.82166,2.439128 0.54777,0.53399 1.38149,0.800989 2.50114,0.800989 1.1231,0 1.95854,-0.266999 2.50631,-0.800989 0.54777,-0.533988 0.82165,-1.347036 0.82165,-2.439128 v -4.625041 h -1.98954 v 4.625041 c 0,0.637342 -0.10508,1.093819 -0.31523,1.369425 -0.2067,0.272164 -0.54777,0.408244 -1.02319,0.408244 -0.47198,0 -0.81304,-0.13608 -1.02319,-0.408244 -0.20671,-0.275606 -0.31006,-0.732083 -0.31006,-1.369425 v -4.625041 z m 8.5938,0 v 7.715288 h 2.09806 c 1.15755,0 2.02572,-0.08268 2.60449,-0.248043 0.57877,-0.168809 1.07487,-0.45303 1.48828,-0.852662 0.36174,-0.347953 0.63045,-0.749308 0.80615,-1.20406 0.1757,-0.458195 0.26355,-0.978408 0.26355,-1.560626 0,-0.575332 -0.0879,-1.090375 -0.26355,-1.545127 -0.1757,-0.45475 -0.44441,-0.856107 -0.80615,-1.204061 -0.40996,-0.399629 -0.90262,-0.68213 -1.47794,-0.847495 -0.57189,-0.168807 -1.4435,-0.253214 -2.61483,-0.253214 z m 8.78499,0 v 7.715288 h 5.48287 v -1.503779 h -3.49333 v -1.767334 h 3.1781 v -1.503784 h -3.1781 v -1.436605 h 3.37964 v -1.503786 z m 7.22953,0 v 7.715288 h 1.88619 v -5.291662 l 2.80603,5.291662 h 2.22209 v -7.715288 h -1.88619 v 5.291667 l -2.80603,-5.291667 z m 7.9375,0 v 1.503786 h 2.56315 v 6.211502 h 1.98955 v -6.211502 h 2.55798 v -1.503786 z m -21.96248,1.503786 h 0.71313 c 0.81649,0 1.43833,0.199816 1.86552,0.599445 0.42719,0.399629 0.64079,0.981856 0.64079,1.746666 0,0.768252 -0.21532,1.353923 -0.64595,1.756997 -0.4272,0.403074 -1.04732,0.604615 -1.86036,0.604615 h -0.71313 z" />
      <path
         id="text3078-3-5"
         style="font-style:normal;font-weight:normal;font-size:10.5833px;line-height:1.25;font-family:sans-serif;letter-spacing:0px;word-spacing:0px;fill:#000000;fill-opacity:1;stroke:none;stroke-width:0.264583"
         d="m 183.40768,101.60903 c -0.93017,0 -1.64331,0.20671 -2.1394,0.62012 -0.4961,0.41341 -0.74414,1.00424 -0.74414,1.7725 0,0.61322 0.17742,1.10071 0.53226,1.46244 0.35829,0.36174 0.92329,0.62529 1.69499,0.79065 l 0.76998,0.17053 c 0.46853,0.10336 0.78031,0.22049 0.93534,0.3514 0.15848,0.13092 0.23772,0.31695 0.23772,0.55811 0,0.26872 -0.11542,0.47542 -0.34624,0.62012 -0.23082,0.14469 -0.56327,0.21704 -0.99735,0.21704 -0.42719,0 -0.87161,-0.0655 -1.33325,-0.19637 -0.4582,-0.13436 -0.93363,-0.33246 -1.42628,-0.59428 v 1.67948 c 0.49265,0.18259 0.9853,0.32039 1.47795,0.41341 0.49265,0.093 0.98358,0.13953 1.47278,0.13953 1.03697,0 1.80695,-0.20671 2.30994,-0.62012 0.50642,-0.41685 0.75964,-1.05076 0.75964,-1.90169 0,-0.64768 -0.18087,-1.14722 -0.5426,-1.49862 -0.36174,-0.3514 -0.97152,-0.61322 -1.82935,-0.78548 l -0.84749,-0.17053 c -0.40308,-0.0827 -0.68213,-0.18087 -0.83716,-0.29456 -0.15158,-0.11713 -0.22738,-0.27905 -0.22738,-0.48575 0,-0.27561 0.11369,-0.47887 0.34107,-0.60979 0.22737,-0.13091 0.57878,-0.19637 1.0542,-0.19637 0.35829,0 0.73897,0.0482 1.14205,0.1447 0.40307,0.0965 0.81649,0.23943 1.24023,0.42891 v -1.63298 c -0.47887,-0.12746 -0.94224,-0.2222 -1.3901,-0.28421 -0.44786,-0.0655 -0.88366,-0.0982 -1.30741,-0.0982 z m -60.93685,0.13953 v 5.15679 l 2.55385,2.55385 c 0.93185,-0.0194 1.64875,-0.10055 2.14871,-0.2434 0.57877,-0.16881 1.07487,-0.45303 1.48828,-0.85266 0.36173,-0.34795 0.63045,-0.74931 0.80615,-1.20406 0.1757,-0.4582 0.26355,-0.97841 0.26355,-1.56063 0,-0.57533 -0.0879,-1.09037 -0.26355,-1.54513 -0.1757,-0.45475 -0.44442,-0.8561 -0.80615,-1.20406 -0.40997,-0.39963 -0.90262,-0.68213 -1.47795,-0.84749 -0.57188,-0.16881 -1.4435,-0.25321 -2.61482,-0.25321 z m 8.785,0 v 7.71529 h 1.98954 v -2.91972 h 0.56327 c 0.32384,0 0.58222,0.0706 0.77515,0.21187 0.19637,0.14125 0.38929,0.4048 0.57877,0.79065 l 0.94051,1.9172 h 2.11874 l -1.08004,-2.19108 c -0.22048,-0.44442 -0.43925,-0.77515 -0.65629,-0.99219 -0.21359,-0.22049 -0.45648,-0.36174 -0.72864,-0.42375 0.49609,-0.15503 0.86645,-0.39618 1.11105,-0.72347 0.24804,-0.32728 0.37207,-0.74586 0.37207,-1.25573 0,-0.73725 -0.23772,-1.27641 -0.71314,-1.61748 -0.47197,-0.34106 -1.21612,-0.51159 -2.23242,-0.51159 z m 8.14937,0 v 7.71529 h 5.48287 v -1.50379 h -3.49333 v -1.76733 h 3.1781 v -1.50378 h -3.1781 v -1.43661 h 3.37964 v -1.50378 z m 9.1674,0 -2.85771,7.71529 h 1.99988 l 0.49093,-1.4056 h 3.11092 l 0.48576,1.4056 h 1.99987 l -2.8577,-7.71529 z m 6.25285,0 v 7.71529 h 1.88619 v -5.64307 l 1.77767,4.15995 h 1.2609 l 1.77767,-4.15995 v 5.64307 h 1.88102 v -7.71529 h -2.52697 l -1.76734,4.12894 -1.757,-4.12894 z m 10.53165,0 v 7.71529 h 5.48287 v -1.50379 h -3.49332 v -1.76733 h 3.1781 v -1.50378 h -3.1781 v -1.43661 h 3.37964 v -1.50378 z m 7.22954,0 v 7.71529 h 1.98954 v -2.91972 h 0.56327 c 0.32384,0 0.58222,0.0706 0.77515,0.21187 0.19637,0.14125 0.3893,0.4048 0.57877,0.79065 l 0.94052,1.9172 h 2.11873 l -1.08004,-2.19108 c -0.22048,-0.44442 -0.43925,-0.77515 -0.65629,-0.99219 -0.21359,-0.22049 -0.45647,-0.36174 -0.72864,-0.42375 0.4961,-0.15503 0.86645,-0.39618 1.11105,-0.72347 0.24804,-0.32728 0.37207,-0.74586 0.37207,-1.25573 0,-0.73725 -0.23772,-1.27641 -0.71314,-1.61748 -0.47198,-0.34106 -1.21612,-0.51159 -2.23242,-0.51159 z m -39.34127,1.44177 h 0.83716 c 0.41685,0 0.71486,0.0758 0.894,0.22738 0.18259,0.15158 0.27389,0.40307 0.27389,0.75447 0,0.35484 -0.0913,0.60978 -0.27389,0.76481 -0.17914,0.15503 -0.47715,0.23255 -0.894,0.23255 h -0.83716 z m 41.33081,0 h 0.83716 c 0.41685,0 0.71486,0.0758 0.894,0.22738 0.18259,0.15158 0.27388,0.40307 0.27388,0.75447 0,0.35484 -0.0913,0.60978 -0.27388,0.76481 -0.17914,0.15503 -0.47715,0.23255 -0.894,0.23255 h -0.83716 z m -50.1158,0.062 h 0.71313 c 0.81649,0 1.43833,0.19982 1.86552,0.59945 0.42719,0.39963 0.64079,0.98185 0.64079,1.74666 0,0.76825 -0.21532,1.35392 -0.64596,1.757 -0.42719,0.40307 -1.04731,0.60461 -1.86035,0.60461 h -0.71313 z m 25.30078,0.30489 1.0542,3.06958 h -2.11357 z" />
      <rect
         style="fill:#000000;fill-opacity:1;stroke:#000000;stroke-width:0;stroke-linecap:square;paint-order:stroke markers fill"
         id="rect8098-1"
         width="2.4164217"
         height="2.4164217"
         x="108.63098"
         y="110.16544" />
      <path
         id="rect8098-8"
         style="fill:#000000;fill-opacity:1;stroke:#000000;stroke-width:0;stroke-linecap:square;paint-order:stroke markers fill"
         d="m 111.83628,99.002575 v 10.503845 h 10.50384 z" />
    </g>
  </g>
</svg>
